<svg  xmlns="http://www.w3.org/2000/svg">
<symbol id="message" viewBox="0 0 21 21">
<g>
<path  d="M3.64658 4.73008C3.14952 4.73008 2.74658 5.12825 2.74658 5.61942V15.0866C2.74658 15.5778 3.14952 15.976 3.64658 15.976H17.0595C17.5565 15.976 17.9595 15.5778 17.9595 15.0866V5.61942C17.9595 5.12825 17.5565 4.73008 17.0595 4.73008H3.64658ZM1.35303 5.61942C1.35303 4.36773 2.37988 3.35303 3.64658 3.35303H17.0595C18.3262 3.35303 19.353 4.36773 19.353 5.61942V15.0866C19.353 16.3383 18.3262 17.353 17.0595 17.353H3.64658C2.37988 17.353 1.35303 16.3383 1.35303 15.0866V5.61942Z" />
<path  d="M4.48969 6.5824C4.70963 6.32342 5.11716 6.27676 5.39993 6.47819L10.353 10.0064L15.3061 6.47819C15.5889 6.27676 15.9964 6.32342 16.2164 6.5824C16.4363 6.84137 16.3854 7.2146 16.1026 7.41603L10.7513 11.2279C10.517 11.3947 10.189 11.3947 9.9548 11.2279L4.60347 7.41603C4.3207 7.2146 4.26976 6.84137 4.48969 6.5824Z" />
</g>
</symbol>

<symbol id="phone" viewBox="0 0 18 18">
<g>
<path d="M4.6007 0.941162C4.26229 0.941162 3.92841 1.06281 3.65017 1.28475L3.61006 1.30481L3.59 1.32552L1.56794 3.4084L1.588 3.42781C1.2913 3.69722 1.08109 4.04849 0.983888 4.43728C0.88669 4.82607 0.906869 5.23495 1.04188 5.61228C1.04447 5.61746 1.03929 5.62716 1.04188 5.63234C1.59058 7.2021 2.99341 10.2329 5.73306 12.9726C8.48306 15.7226 11.554 17.0698 13.0733 17.6638H13.0934C13.4741 17.7896 13.8809 17.8148 14.2743 17.7367C14.6676 17.6587 15.0341 17.4802 15.338 17.2186L17.3801 15.1765C17.9159 14.6407 17.9159 13.7102 17.3801 13.1745L14.7518 10.5461L14.7311 10.5053C14.1953 9.96957 13.2454 9.96957 12.709 10.5053L11.4149 11.7995C10.4437 11.3329 9.55036 10.7191 8.76647 9.97993C7.70723 8.96857 7.16629 7.80581 6.967 7.35093L8.26112 6.05681C8.80464 5.51328 8.81435 4.60869 8.24041 4.07552L8.26047 4.05481L8.20029 3.99463L5.61206 1.32552L5.592 1.30546L5.55123 1.28475C5.28268 1.06546 4.9474 0.94427 4.6007 0.941162ZM4.6007 2.23528C4.6536 2.23835 4.70374 2.25988 4.74241 2.2961L7.33064 4.94452L7.39147 5.00534C7.38629 5.00016 7.429 5.06875 7.3507 5.14705L5.73306 6.76469L5.42959 7.0481L5.57194 7.45187C5.57194 7.45187 6.31476 9.44158 7.87676 10.9305L8.01847 11.0515C9.52159 12.4239 11.2939 13.1745 11.2939 13.1745L11.6983 13.3569L13.6194 11.4352C13.7307 11.3245 13.71 11.3245 13.8213 11.4352L16.4704 14.0855C16.5816 14.1962 16.5816 14.156 16.4704 14.2667L14.4884 16.2486C14.1908 16.5042 13.8744 16.5573 13.4984 16.4311C12.0322 15.8546 9.18317 14.6032 6.64282 12.0635C4.08241 9.5024 2.74558 6.5984 2.25576 5.18846C2.15676 4.9251 2.22729 4.53622 2.45764 4.33887L2.49776 4.2981L4.45964 2.29675C4.49788 2.26056 4.54753 2.23883 4.60006 2.23528H4.6007Z" />
</g>
</symbol>
<symbol id="user" viewBox="0 0 18 18">
<g>
<path style="stroke-width:8;stroke-linecap:round;stroke-linejoin:round;stroke:rgb(0%,0%,0%);stroke-opacity:1;stroke-miterlimit:10;" d="M 348.555556 145.888889 C 348.555556 199.444444 305.222222 242.777778 251.666667 242.777778 C 198.111111 242.777778 154.777778 199.444444 154.777778 145.888889 C 154.777778 92.444444 198.111111 49 251.666667 49 C 305.222222 49 348.555556 92.444444 348.555556 145.888889 Z M 348.555556 145.888889 " transform="matrix(0.0351562,0,0,0.0351562,0,0)"/>
<path style="stroke-width:8;stroke-linecap:round;stroke-linejoin:round;stroke:rgb(0%,0%,0%);stroke-opacity:1;stroke-miterlimit:10;" d="M 275.333333 274.444444 C 370.888889 284.111111 445.555556 364.888889 445.555556 463 " transform="matrix(0.0351562,0,0,0.0351562,0,0)"/>
<path style="stroke-width:8;stroke-linecap:round;stroke-linejoin:round;stroke:rgb(0%,0%,0%);stroke-opacity:1;stroke-miterlimit:10;" d="M 66.444444 463 C 66.444444 366.666667 138.444444 287.111111 231.444444 275 " transform="matrix(0.0351562,0,0,0.0351562,0,0)"/>
</g>
</symbol>
<symbol id="logo" viewBox="0 0 51 51">
<g>
<path fill-rule="evenodd" clip-rule="evenodd" d="M1.82788 21.0688L21.0688 1.82788C23.506 -0.609294 27.494 -0.609294 29.9312 1.82788L49.1722 21.0688C51.6094 23.506 51.6094 27.494 49.1722 29.9312L29.9312 49.1721C27.494 51.6093 23.506 51.6093 21.0688 49.1721L1.82788 29.9312C-0.609294 27.494 -0.609294 23.506 1.82788 21.0688Z" fill="#33CC66"/>
<path fill-rule="evenodd" clip-rule="evenodd" d="M9.96115 23.0461C11.3107 21.6966 13.5187 21.6966 14.8676 23.0461L27.9532 36.1311C29.3021 37.4806 29.3021 39.688 27.9532 41.0375C26.6036 42.3871 24.3956 42.3871 23.0461 41.0375L9.96115 27.9526C8.61161 26.603 8.61221 24.395 9.96115 23.0461Z" fill="white"/>
<path fill-rule="evenodd" clip-rule="evenodd" d="M36.1274 27.9521L31.2634 23.1153C30.5073 22.3635 30.1769 21.3389 30.2648 20.3489C30.4055 18.7702 31.9399 17.2455 33.6163 17.1982C34.5384 17.1721 35.4678 17.5104 36.1692 18.2088L41.0333 23.0456C41.5249 23.5342 40.1439 31.9473 36.1262 27.9521H36.1274Z" fill="white"/>
<path fill-rule="evenodd" clip-rule="evenodd" d="M9.96115 27.9606C11.3107 29.3102 13.5187 29.3102 14.8676 27.9606L27.9532 14.8757C29.3021 13.5261 29.3021 11.3181 27.9532 9.96919C26.6036 8.61965 24.3956 8.61965 23.0461 9.96919L9.96115 23.0547C8.61161 24.4037 8.61221 26.6123 9.96115 27.9612V27.9606Z" fill="white"/>
<path fill-rule="evenodd" clip-rule="evenodd" d="M23.0463 41.0373C24.3953 42.3862 26.6033 42.3862 27.9528 41.0373L41.0378 27.9523C42.3873 26.6034 42.3873 24.3954 41.0378 23.0459C39.6888 21.6969 37.4809 21.6963 36.1313 23.0459L23.0463 36.1308C21.6968 37.4804 21.6968 39.6884 23.0463 41.0379V41.0373Z" fill="white"/>
</g>
</symbol>

<symbol id="logo-text" viewBox="0 0 135 13">
<g>
<path d="M5.96044 10.7975C4.92858 10.7975 3.99555 10.5732 3.16133 10.1252C2.32711 9.67656 1.67113 9.05453 1.194 8.25911C0.716869 7.4637 0.478027 6.564 0.478027 5.56125C0.478027 4.55849 0.716869 3.6594 1.194 2.86338C1.67113 2.06796 2.32711 1.44594 3.16133 0.997301C3.99555 0.548667 4.93343 0.324951 5.97438 0.324951C6.85225 0.324951 7.64524 0.478949 8.35396 0.787537C9.06268 1.09612 9.65865 1.53991 10.1406 2.11828L8.63649 3.50661C7.95141 2.71605 7.10324 2.32078 6.09078 2.32078C5.4639 2.32078 4.90434 2.45778 4.41266 2.73302C3.92098 3.00766 3.53721 3.39144 3.26257 3.88312C2.98793 4.37479 2.85032 4.93376 2.85032 5.56125C2.85032 6.18812 2.98793 6.74709 3.26257 7.23938C3.53721 7.73105 3.92098 8.11421 4.41266 8.38945C4.90434 8.66409 5.4633 8.80171 6.09078 8.80171C7.10324 8.80171 7.95202 8.40158 8.63649 7.60131L10.1406 8.98966C9.65865 9.57774 9.06087 10.0264 8.3473 10.335C7.63373 10.6435 6.8383 10.7975 5.96044 10.7975ZM17.9553 10.7975C16.9041 10.7975 15.9565 10.5708 15.1132 10.1179C14.2693 9.66442 13.6084 9.03998 13.1319 8.24456C12.6548 7.44915 12.4159 6.5543 12.4159 5.56125C12.4159 4.56758 12.6548 3.67334 13.1319 2.87793C13.609 2.08251 14.2699 1.45805 15.1132 1.00457C15.9571 0.551085 16.9041 0.324951 17.9553 0.324951C19.0066 0.324951 19.9512 0.551691 20.7902 1.00457C21.6293 1.45805 22.2895 2.08191 22.7715 2.87793C23.2541 3.67334 23.4948 4.56819 23.4948 5.56125C23.4948 6.5543 23.2541 7.44854 22.7715 8.24456C22.2895 9.03998 21.6287 9.66442 20.7902 10.1179C19.9512 10.5708 19.006 10.7975 17.9553 10.7975ZM17.9553 8.80171C18.5531 8.80171 19.0933 8.6647 19.5753 8.38945C20.0573 8.11482 20.4362 7.73105 20.7108 7.23938C20.9855 6.7477 21.1231 6.18812 21.1231 5.56125C21.1231 4.93437 20.9855 4.37479 20.7108 3.88312C20.4362 3.39144 20.0573 3.00766 19.5753 2.73302C19.0927 2.45839 18.5531 2.32078 17.9553 2.32078C17.3576 2.32078 16.8174 2.45778 16.3354 2.73302C15.8534 3.00766 15.4751 3.39144 15.1999 3.88312C14.9252 4.37479 14.7876 4.93376 14.7876 5.56125C14.7876 6.18812 14.9252 6.74709 15.1999 7.23938C15.4745 7.73105 15.8534 8.11421 16.3354 8.38945C16.818 8.66409 17.3576 8.80171 17.9553 8.80171ZM37.5879 8.71502V12.7649H35.4327V10.6241H26.9705V0.498956H29.2991V8.71502H33.8121V0.498956H36.1408V8.71502H37.5873H37.5879ZM47.9338 2.40807H43.117L43.1316 10.6241H40.8029V0.498956H47.9489L47.9344 2.40868L47.9338 2.40807ZM55.9365 8.45433H51.2355L50.3388 10.6241H47.9374L52.4504 0.498956H54.7645L59.2921 10.6241H56.8331L55.9365 8.45433ZM55.1986 6.67555L53.5933 2.79911L51.9879 6.67555H55.1992H55.1986ZM66.6873 0.498956C67.584 0.498956 68.363 0.648696 69.0232 0.947584C69.6841 1.24647 70.1927 1.67085 70.5492 2.22013C70.9063 2.77001 71.0845 3.42113 71.0845 4.1729C71.0845 4.91557 70.9063 5.56367 70.5492 6.1184C70.1921 6.67252 69.6841 7.09751 69.0232 7.39155C68.363 7.68559 67.584 7.83291 66.6873 7.83291H64.6478V10.6247H62.3046V0.499562H66.6873V0.498956ZM66.5569 5.92318C67.2608 5.92318 67.7962 5.77162 68.1623 5.46788C68.5285 5.16414 68.7122 4.73248 68.7122 4.1729C68.7122 3.60422 68.5291 3.16772 68.1623 2.86399C67.7962 2.56025 67.2608 2.40868 66.5569 2.40868H64.6472V5.92318H66.5569ZM80.6495 8.45433H75.9485L75.0519 10.6241H72.6505L77.1635 0.498956H79.4776L84.0052 10.6241H81.5462L80.6495 8.45433ZM79.9117 6.67555L78.3063 2.79911L76.7009 6.67555H79.9123H79.9117ZM96.3038 0.498956V10.6241H93.9606V6.47307H89.3609V10.6241H87.0177V0.498956H89.3609V4.49118H93.9606V0.498956H96.3038ZM108.241 2.40868H105.001V10.6247H102.687V2.40868H99.4606V0.498956H108.241V2.40868H108.241ZM111.383 0.498956H113.712V7.09509L118.543 0.498956H120.742V10.6241H118.428V4.04256L113.596 10.6241H111.383V0.498956ZM124.926 0.498956H127.255V7.09509L132.086 0.498956H134.284V10.6241H131.97V4.04256L127.139 10.6241H124.926V0.498956Z" fill="white"/>
</g>
</symbol>
<symbol id="system" viewBox="0 0 101 100">
<g>
<path d="M0.5 16C0.5 7.16345 7.66344 0 16.5 0H84.5C93.3366 0 100.5 7.16344 100.5 16V84C100.5 92.8366 93.3366 100 84.5 100H16.5C7.66345 100 0.5 92.8366 0.5 84V16Z" fill="#9AF88C"/>
<rect x="29" y="27.5" width="29" height="29" stroke="black" stroke-dasharray="3 3"/>
<rect x="44" y="42.5" width="29" height="29" stroke="black"/>
</g>
</symbol>

<symbol id="spravedlivost" viewBox="0 0 101 100">
<g>
<path d="M0.5 16C0.5 7.16345 7.66344 0 16.5 0H84.5C93.3366 0 100.5 7.16344 100.5 16V84C100.5 92.8366 93.3366 100 84.5 100H16.5C7.66345 100 0.5 92.8366 0.5 84V16Z" fill="#FFD7AF"/>
<path d="M40.4613 40.2802C40.21 40.2802 39.9727 40.1286 39.8755 39.8805C39.7488 39.5571 39.9084 39.1922 40.2317 39.0656L46.9244 36.4447C47.2477 36.318 47.6126 36.4776 47.7393 36.801C47.8659 37.1245 47.7064 37.4893 47.3829 37.6159L40.6904 40.2368C40.6152 40.2662 40.5376 40.2802 40.4613 40.2802Z" fill="black"/>
<path d="M53.8466 35.0384C53.5953 35.0384 53.358 34.8867 53.2608 34.6387C53.1341 34.3152 53.2936 33.9504 53.617 33.8237L60.3095 31.2028C60.6329 31.0761 60.9978 31.2357 61.1244 31.559C61.2511 31.8824 61.0916 32.2473 60.7682 32.374L54.0757 34.9949C54.0005 35.0244 53.9228 35.0384 53.8466 35.0384Z" fill="black"/>
<path d="M62.2119 33.559C60.8743 33.559 59.7861 32.4708 59.7861 31.1332C59.7861 29.7956 60.8743 28.7074 62.2119 28.7074C63.5495 28.7074 64.6377 29.7956 64.6377 31.1332C64.6377 32.4708 63.5495 33.559 62.2119 33.559ZM62.2119 29.9652C61.5679 29.9652 61.0439 30.4892 61.0439 31.1332C61.0439 31.7772 61.5679 32.3011 62.2119 32.3011C62.8559 32.3011 63.3799 31.7772 63.3799 31.1332C63.3799 30.4892 62.8559 29.9652 62.2119 29.9652Z" fill="black"/>
<path d="M38.7876 42.732C37.45 42.732 36.3618 41.6439 36.3618 40.3063C36.3618 38.9687 37.45 37.8805 38.7876 37.8805C40.1252 37.8805 41.2134 38.9687 41.2134 40.3063C41.2134 41.6439 40.1252 42.732 38.7876 42.732ZM38.7876 39.1383C38.1436 39.1383 37.6196 39.6623 37.6196 40.3063C37.6196 40.9503 38.1436 41.4742 38.7876 41.4742C39.4316 41.4742 39.9556 40.9503 39.9556 40.3063C39.9556 39.6623 39.4317 39.1383 38.7876 39.1383Z" fill="black"/>
<path d="M43.3125 62.3085H34.3282C34.1356 62.3085 33.9537 62.2203 33.8344 62.0691C33.7151 61.9179 33.6717 61.7204 33.7165 61.5332L38.2087 42.7609C38.2764 42.4779 38.5294 42.2783 38.8204 42.2783C39.1114 42.2783 39.3643 42.4779 39.432 42.7609L43.9242 61.5332C43.969 61.7204 43.9256 61.9179 43.8063 62.0691C43.687 62.2203 43.5051 62.3085 43.3125 62.3085ZM35.1254 61.0506H42.5155L38.8204 45.6095L35.1254 61.0506Z" fill="black"/>
<path d="M38.8203 71.293C34.0149 71.293 30.1055 67.3835 30.1055 62.5781V61.6797C30.1055 61.3324 30.387 61.0508 30.7344 61.0508H46.9062C47.2536 61.0508 47.5352 61.3324 47.5352 61.6797V62.5781C47.5352 67.3835 43.6257 71.293 38.8203 71.293ZM31.3633 62.3086V62.5781C31.3633 66.69 34.7084 70.0352 38.8203 70.0352C42.9322 70.0352 46.2773 66.69 46.2773 62.5781V62.3086H31.3633Z" fill="black"/>
<path d="M66.6719 53.4189H57.6875C57.4962 53.4189 57.3153 53.3319 57.196 53.1824C57.0767 53.0329 57.0318 52.8371 57.0742 52.6506L61.5664 32.8851C61.6316 32.5987 61.8861 32.3955 62.1797 32.3955C62.4733 32.3955 62.7279 32.5987 62.793 32.8851L67.2852 52.6506C67.3276 52.8371 67.2827 53.0329 67.1634 53.1824C67.0441 53.3319 66.8632 53.4189 66.6719 53.4189ZM58.4754 52.1611H65.8841L62.1797 35.8622L58.4754 52.1611Z" fill="black"/>
<path d="M62.1797 62.4033C57.3743 62.4033 53.4648 58.4939 53.4648 53.6885V52.79C53.4648 52.4427 53.7464 52.1611 54.0938 52.1611H70.2656C70.613 52.1611 70.8945 52.4427 70.8945 52.79V53.6885C70.8945 58.4939 66.9851 62.4033 62.1797 62.4033ZM54.7227 53.4189V53.6885C54.7227 57.8004 58.0678 61.1455 62.1797 61.1455C66.2916 61.1455 69.6367 57.8004 69.6367 53.6885V53.4189H54.7227Z" fill="black"/>
<path d="M50.5 39.9424C48.1716 39.9424 46.2773 38.0481 46.2773 35.7197C46.2773 33.3913 48.1716 31.4971 50.5 31.4971C52.8284 31.4971 54.7227 33.3913 54.7227 35.7197C54.7227 38.0481 52.8284 39.9424 50.5 39.9424ZM50.5 32.7549C48.8652 32.7549 47.5352 34.0849 47.5352 35.7197C47.5352 37.3545 48.8652 38.6846 50.5 38.6846C52.1348 38.6846 53.4648 37.3545 53.4648 35.7197C53.4648 34.0849 52.1348 32.7549 50.5 32.7549Z" fill="black"/>
</g>
</symbol>

<symbol id="security" viewBox="0 0 101 100">
<g>
<path d="M0.5 16C0.5 7.16345 7.66344 0 16.5 0H84.5C93.3366 0 100.5 7.16344 100.5 16V84C100.5 92.8366 93.3366 100 84.5 100H16.5C7.66345 100 0.5 92.8366 0.5 84V16Z" fill="#FFF899"/>
<path d="M30.0018 35.118C30.0255 35.1176 30.0499 35.1172 30.0751 35.1167C30.4507 35.1094 30.9932 35.0874 31.6687 35.0291C33.019 34.9126 34.9037 34.6507 37.0493 34.069C41.2041 32.9426 46.3585 30.6105 50.4895 25.7919C54.4157 30.6135 59.5752 32.9444 63.7811 34.0695C65.9554 34.6511 67.8829 34.9128 69.2683 35.0292C69.9613 35.0874 70.5196 35.1094 70.9065 35.1167C70.9382 35.1173 70.9688 35.1178 70.9982 35.1183C70.8886 50.5012 65.7397 60.0829 60.6266 65.8252C58.0385 68.7318 55.4522 70.6627 53.5173 71.8652C52.55 72.4664 51.7459 72.8853 51.1866 73.1527C50.907 73.2864 50.6887 73.3822 50.5419 73.444C50.5272 73.4502 50.5132 73.456 50.5 73.4615C50.4868 73.456 50.4728 73.4502 50.4581 73.444C50.3113 73.3822 50.093 73.2864 49.8134 73.1527C49.2541 72.8853 48.45 72.4664 47.4827 71.8652C45.5478 70.6627 42.9615 68.7318 40.3734 65.8252C35.2603 60.0829 30.1114 50.5011 30.0018 35.118Z" stroke="black"/>
<path d="M41.5 49.2759L48.3182 56L61.5 43" stroke="black"/>
</g>
</symbol>

<symbol id="chestnost" viewBox="0 0 101 100">
<g>
<path d="M0.5 16C0.5 7.16345 7.66344 0 16.5 0H84.5C93.3366 0 100.5 7.16344 100.5 16V84C100.5 92.8366 93.3366 100 84.5 100H16.5C7.66345 100 0.5 92.8366 0.5 84V16Z" fill="#FFC8FF"/>
<path d="M54.1547 25.4703L54.3671 25.659L54.6379 25.573L58.6594 24.2968L60.4018 28.1393L60.5191 28.398L60.8015 28.4297L64.9944 28.8994L65.0233 33.1184L65.0252 33.4025L65.2703 33.5463L68.9096 35.6808L67.22 39.5468L67.1062 39.8072L67.2716 40.0382L69.7281 43.4684L66.6121 46.3129L66.4023 46.5045L66.4594 46.7828L67.3084 50.9156L63.3048 52.2469L63.0352 52.3365L62.9742 52.614L62.0688 56.7348L57.8698 56.3225L57.5871 56.2948L57.4185 56.5235L54.9152 59.9198L51.247 57.8353L51 57.6949L50.753 57.8353L47.0848 59.9198L44.5815 56.5235L44.4129 56.2948L44.1302 56.3225L39.9312 56.7348L39.0258 52.614L38.9648 52.3365L38.6952 52.2469L34.6916 50.9156L35.5406 46.7828L35.5977 46.5045L35.3879 46.3129L32.2719 43.4684L34.7284 40.0382L34.8938 39.8072L34.78 39.5468L33.0904 35.6808L36.7297 33.5463L36.9748 33.4025L36.9767 33.1184L37.0056 28.8994L41.1985 28.4297L41.4809 28.398L41.5982 28.1393L43.3406 24.2968L47.3621 25.573L47.6329 25.659L47.8453 25.4703L51 22.6687L54.1547 25.4703Z" stroke="black"/>
<path d="M43.5615 59.2075L39.2996 75.1131L44.3826 72.8861L47.671 77.3562L49.6898 69.822" stroke="black"/>
<path d="M57.6226 59.2075L61.8844 75.1131L56.8015 72.8861L53.5131 77.3562L49.2512 61.4506" stroke="black"/>
<circle cx="51" cy="41.5" r="11" stroke="black"/></g>
</symbol>

</svg>


<svg width="101" height="100" viewBox="0 0 101 100" fill="none" xmlns="http://www.w3.org/2000/svg">

</svg>









